<svg xmlns="http://www.w3.org/2000/svg" fill="none" viewBox="0 0 14 14"><path fill="#000" fill-rule="evenodd" d="M8.26284 7.92647H5.73715C4.0803 7.92647 2.73715 9.26961 2.73715 10.9265V11C2.73715 11.5523 3.18487 12 3.73715 12H10.2628C10.8151 12 11.2628 11.5523 11.2628 11V10.9265C11.2628 9.26961 9.91969 7.92647 8.26284 7.92647zM5.73715 6.92647C3.52801 6.92647 1.73715 8.71733 1.73715 10.9265V11C1.73715 12.1046 2.63258 13 3.73715 13H10.2628C11.3674 13 12.2628 12.1046 12.2628 11V10.9265C12.2628 8.71733 10.472 6.92647 8.26284 6.92647H5.73715zM6.99999 5.12029C7.86087 5.12029 8.55931 4.42209 8.55931 3.56014 8.55931 2.69819 7.86087 2 6.99999 2 6.13911 2 5.44067 2.69819 5.44067 3.56014 5.44067 4.42209 6.13911 5.12029 6.99999 5.12029zM6.99999 6.12029C8.41346 6.12029 9.55931 4.97407 9.55931 3.56014 9.55931 2.14621 8.41346.999996 6.99999.999996 5.58652.999996 4.44067 2.14621 4.44067 3.56014 4.44067 4.97407 5.58652 6.12029 6.99999 6.12029z" clip-rule="evenodd"/></svg>