<svg xmlns="http://www.w3.org/2000/svg" fill="none" viewBox="0 0 52 52"><path fill="#000" stroke="#000" stroke-width=".5" d="M40.0876 9.74167L40.0796 9.5H39.8378H12.1779H11.9361L11.928 9.74167L11.6614 17.7397L11.6528 17.998H11.9113H13.4664H13.6779L13.713 17.7895C14.1332 15.2904 14.7356 13.9359 15.9387 13.1502C16.5477 12.7525 17.3292 12.4879 18.3605 12.3115C19.3922 12.135 20.6584 12.0493 22.2278 11.9994L22.2279 11.9994L23.3473 11.9633V37.1433C23.3473 38.2229 23.2232 38.7678 22.7448 39.126C22.4926 39.3149 22.1216 39.4674 21.5649 39.5925C21.0096 39.7172 20.2897 39.8105 19.354 39.8936L19.1261 39.9138V40.1426V41.8311V42.0811H19.3761H32.6395H32.8895V41.8311V40.1426V39.9137L32.6615 39.8935C31.7202 39.8105 30.996 39.7172 30.4376 39.5924C29.8777 39.4673 29.5046 39.3147 29.2509 39.1257C28.7702 38.7674 28.6461 38.2228 28.6461 37.1433V11.9631L29.7878 11.9994C31.3573 12.0493 32.6234 12.135 33.6551 12.3115C34.6864 12.4879 35.468 12.7525 36.077 13.1502C37.28 13.9359 37.8825 15.2904 38.3027 17.7895L38.3377 17.998H38.5492H40.1044H40.3628L40.3542 17.7397L40.0876 9.74167Z"/></svg>