<svg xmlns="http://www.w3.org/2000/svg" fill="none" viewBox="0 0 48 48"><path fill="#000" fill-rule="evenodd" d="M2 9C2 7.34315 3.34315 6 5 6H43C44.6569 6 46 7.34315 46 9V39C46 40.6569 44.6569 42 43 42H5C3.34314 42 2 40.6569 2 39V9ZM6 10V38H42V10H6Z" clip-rule="evenodd"/><path fill="#000" fill-rule="evenodd" d="M10 17C10 15.3431 11.3431 14 13 14H19C20.6569 14 22 15.3431 22 17V31C22 32.6569 20.6569 34 19 34H13C11.3431 34 10 32.6569 10 31V17zM14 18V30H18V18H14zM26 14H38V18H26V14zM26 22H38V26H26V22zM26 30H38V34H26V30z" clip-rule="evenodd"/></svg>