<svg xmlns="http://www.w3.org/2000/svg" viewBox="0 0 70 70"><path style="line-height:normal;text-indent:0;text-align:start;text-decoration-line:none;text-decoration-style:solid;text-decoration-color:#000;text-transform:none;block-progression:tb;white-space:normal;isolation:auto;mix-blend-mode:normal;solid-color:#000;solid-opacity:1" d="M35 994.362c-12.679 0-23 10.321-23 23s10.321 23 23 23 23-10.321 23-23-10.321-23-23-23zm0 4c10.517 0 19 8.483 19 19s-8.483 19-19 19a18.97 18.97 0 0 1-19-19c0-10.517 8.483-19 19-19z" color="#000" enable-background="accumulate" font-family="sans-serif" font-weight="400" overflow="visible" transform="translate(0 -982.362)"/><path style="line-height:normal;text-indent:0;text-align:start;text-decoration-line:none;text-decoration-style:solid;text-decoration-color:#000;text-transform:none;block-progression:tb;white-space:normal;isolation:auto;mix-blend-mode:normal;solid-color:#000;solid-opacity:1" fill-rule="evenodd" d="M45.656 1007.141a2 2 0 0 0-1.529.71l-12.863 14.798-5.483-5.482a2 2 0 1 0-2.83 2.828l7 7a2 2 0 0 0 2.924-.102l14.271-16.418a2 2 0 0 0-1.49-3.334z" color="#000" enable-background="accumulate" font-family="sans-serif" font-weight="400" overflow="visible" transform="translate(0 -982.362)"/></svg>